# xmcd
#
# Track frame offsets: 
#        150
#        13547
#        23360
#        33499
#        48199
#        64983
#        85079
#        96179
#        110479
#        124292
#        140334
#        152771
#
# Disc length: 2160 seconds
#
# Revision: 0
# Processed by: cddbd v1.5.2PL0 Copyright (c) Steve Scherf et al.
# Submitted via: ExactAudioCopyFreeDBPlugin 1.0
#
DISCID=92086e0c
DTITLE=Lewis Brothers - Folk and Camp Fire Songs
DYEAR=2012
DGENRE=Folk
TTITLE0=It's A Lie
TTITLE1=Erie Canal
TTITLE2=Vive La Compagnie
TTITLE3=MTA
TTITLE4=Froggie Went Courtin'
TTITLE5=Poison Ivy
TTITLE6=Ten in the Bed
TTITLE7=Lily The Pink
TTITLE8=Old Joe Clark
TTITLE9=When I First Came to This Land
TTITLE10=Outdoor Type
TTITLE11=Bonus Track
EXTD=
EXTT0=
EXTT1=
EXTT2=
EXTT3=
EXTT4=
EXTT5=
EXTT6=
EXTT7=
EXTT8=
EXTT9=
EXTT10=
EXTT11=
PLAYORDER=
